PathFileType	4	(X/Y/Z)	/Users/itak/Documents/Research/Walk-IL/dataset/trc/00438_00167.trc
DataRate	CameraRate	NumFrames	NumMarkers	Units	OrigDataRate	OrigDataStartFrame	OrigNumFrames
100.000000	100.000000	4	53	mm	100.000000	326	522
Frame#	Time	RPSI			LPSI			L3			STRN			T10			C7			CLAV			RBAK			LBAK			LSHO			LUPA			LAEL			LAOL			LWTS			LWPS			LFRA			LIFD			LHPS			LHTS			RSHO			RUPA			RAEL			RAOL			RWTS			RWPS			RFRA			RIFD			RHTS			RHPS			RBHD			LFHD			RFHD			LBHD			LHIP			RHIP			RASI			LASI			LKNE			LTHI			LANK			LTIP			LTOE			LMT1			LMT5			LHEE			RKNE			RTHI			RANK			RTIP			RTOE			RMT1			RMT5			RHEE			
		X1	Y1	Z1	X2	Y2	Z2	X3	Y3	Z3	X4	Y4	Z4	X5	Y5	Z5	X6	Y6	Z6	X7	Y7	Z7	X8	Y8	Z8	X9	Y9	Z9	X10	Y10	Z10	X11	Y11	Z11	X12	Y12	Z12	X13	Y13	Z13	X14	Y14	Z14	X15	Y15	Z15	X16	Y16	Z16	X17	Y17	Z17	X18	Y18	Z18	X19	Y19	Z19	X20	Y20	Z20	X21	Y21	Z21	X22	Y22	Z22	X23	Y23	Z23	X24	Y24	Z24	X25	Y25	Z25	X26	Y26	Z26	X27	Y27	Z27	X28	Y28	Z28	X29	Y29	Z29	X30	Y30	Z30	X31	Y31	Z31	X32	Y32	Z32	X33	Y33	Z33	X34	Y34	Z34	X35	Y35	Z35	X36	Y36	Z36	X37	Y37	Z37	X38	Y38	Z38	X39	Y39	Z39	X40	Y40	Z40	X41	Y41	Z41	X42	Y42	Z42	X43	Y43	Z43	X44	Y44	Z44	X45	Y45	Z45	X46	Y46	Z46	X47	Y47	Z47	X48	Y48	Z48	X49	Y49	Z49	X50	Y50	Z50	X51	Y51	Z51	X52	Y52	Z52	X53	Y53	Z53	

327	3.26	83.87274169921875	940.27587890625	329.2486267089844	164.0436248779297	947.5467529296875	211.5164337158203	128.3823089599609	1048.87158203125	278.9668273925781	344.3264465332031	1244.309814453125	439.7730407714844	121.092887878418	1172.82470703125	262.4454040527344	163.7832794189453	1440.560546875	315.05908203125	314.0901794433594	1358.6748046875	420.0791625976562	57.45676422119141	1320.82275390625	343.1427001953125	203.9791107177734	1397.31103515625	215.2028045654297	330.7208251953125	1422.487915039062	226.2950134277344	411.3899230957031	1318.401611328125	150.996337890625	516.2477416992188	1128.475952148438	160.6164703369141	426.3561706542969	1078.756958007812	148.9054565429688	607.7589111328125	965.4490966796875	277.0840759277344	622.1013793945312	941.39501953125	208.6597137451172	566.3028564453125	1055.848388671875	181.0918731689453	679.0970458984375	814.9534301757812	306.3412475585938	657.2151489257812	870.6533813476562	227.9307861328125	659.720458984375	892.9087524414062	295.5986022949219	115.2719192504883	1408.240112304688	481.9209594726562	47.26348495483398	1351.419311523438	522.7196044921875	-29.71111297607422	1070.82177734375	539.4110717773438	-44.83871459960938	1062.19677734375	473.5877685546875	58.17636108398438	857.3176879882812	551.46533203125	-30.74648284912109	849.5189208984375	550.3849487304688	-39.57119369506836	1012.1123046875	544.84814453125	38.41632461547852	699.1255493164062	536.1549072265625	51.51600646972656	755.2625732421875	556.8593139648438	-23.94545745849609	761.1752319335938	549.0233764648438	179.6323089599609	1635.330688476562	439.0205078125	379.5678100585938	1652.7578125	389.0162353515625	304.2987365722656	1655.226440429688	495.6348876953125	269.0188293457031	1636.8232421875	284.3475952148438	343.3690490722656	846.0301513671875	191.5560150146484	117.3521957397461	854.06201171875	523.0692138671875	231.4397888183594	903.943359375	512.6498413085938	382.5627746582031	890.2822875976562	308.1851806640625	307.1965942382812	421.9292602539062	256.6832275390625	347.5689392089844	576.1253051757812	242.9512634277344	179.1138763427734	32.34808349609375	189.6029815673828	278.13525390625	266.0429077148438	239.7833862304688	286.5710754394531	38.62507247924805	398.1682739257812	218.0886840820312	43.62766265869141	364.1741638183594	297.0321960449219	41.86787796020508	281.7592163085938	107.3648681640625	32.90469360351562	186.1383056640625	269.7101440429688	497.4762573242188	614.9015502929688	183.9894561767578	742.5458374023438	586.8783569335938	197.3993988037109	75.08560943603516	524.3379516601562	246.8442077636719	350.160888671875	605.5206298828125	390.8649291992188	63.41355133056641	616.3466796875	365.6946716308594	72.40353393554688	548.4620361328125	286.3909606933594	51.83830261230469	615.7698974609375	172.8427581787109	86.220703125	447.9213256835938	
328	3.27	91.49057006835938	938.7682495117188	336.2530517578125	170.7295532226562	946.4703369140625	218.0477447509766	135.5074157714844	1047.420532226562	285.2285766601562	352.1535034179688	1242.867065429688	445.3216247558594	128.4464263916016	1171.374877929688	268.4452819824219	171.3279113769531	1438.992553710938	320.9062194824219	321.6997375488281	1357.2275390625	425.8510437011719	65.08806610107422	1319.068603515625	348.7835693359375	211.6679229736328	1395.955322265625	220.9454803466797	338.2998962402344	1421.436157226562	232.2611846923828	419.7874145507812	1317.983276367188	157.1788482666016	526.7246704101562	1129.477294921875	167.7104034423828	437.6266174316406	1078.371948242188	156.1862182617188	620.3126831054688	969.6368408203125	286.6986999511719	635.2417602539062	944.6700439453125	218.7151336669922	577.8157348632812	1057.895385742188	189.2807922363281	694.0023803710938	820.8944091796875	318.7614440917969	671.4158325195312	874.81396484375	239.2950439453125	673.393798828125	898.3113403320312	306.5533447265625	122.7283554077148	1406.351196289062	487.6007690429688	54.86795425415039	1349.3828125	528.197265625	-21.75069046020508	1068.798095703125	545.29638671875	-36.91259384155273	1060.122436523438	479.4658508300781	65.9898681640625	855.2562866210938	557.2589111328125	-22.70339584350586	847.5225830078125	556.4664916992188	-31.56972122192383	1010.091247558594	550.7708740234375	46.54128265380859	697.150390625	542.2106323242188	59.60951995849609	753.321533203125	562.8865356445312	-15.95298004150391	759.1961669921875	555.2664794921875	187.0099487304688	1633.603149414062	445.4513549804688	386.92431640625	1651.338623046875	395.3892517089844	311.7340087890625	1653.460205078125	502.0701904296875	276.3343811035156	1635.55126953125	290.7565307617188	349.5993957519531	845.3446044921875	196.1386108398438	126.4134826660156	852.2796020507812	529.1843872070312	240.4983825683594	902.8960571289062	518.7752075195312	389.9109191894531	888.8976440429688	312.8721008300781	309.1321411132812	421.3252868652344	257.5282897949219	351.1499633789062	575.2767944335938	245.234619140625	179.0490112304688	32.52347946166992	189.6905364990234	279.1350402832031	265.7546997070312	240.2031555175781	286.7164611816406	38.62131881713867	398.181884765625	218.1781311035156	43.67189788818359	364.1975402832031	297.0941772460938	41.81220245361328	281.6852416992188	107.2769546508789	33.26119995117188	186.3109893798828	281.5451965332031	496.1588745117188	619.911376953125	193.4050903320312	741.0422973632812	593.1337890625	226.2420196533203	67.86284637451172	547.1500244140625	264.2500610351562	348.1429138183594	616.4513549804688	420.3500671386719	67.57598114013672	638.6777954101562	394.6054077148438	73.05467987060547	570.526123046875	316.5102844238281	51.32007217407227	638.7638549804688	201.0328826904297	75.26700592041016	470.4375915527344	
329	3.28	99.21250915527344	937.0679321289062	343.2339477539062	177.52587890625	945.2399291992188	224.5957336425781	142.66796875	1045.767822265625	291.5214233398438	360.0306701660156	1241.228881835938	450.9706420898438	135.8033905029297	1169.729248046875	274.4828186035156	178.8766937255859	1437.204467773438	326.8714599609375	329.348876953125	1355.576049804688	431.7077331542969	72.73525238037109	1317.092041015625	354.5678100585938	219.352783203125	1394.389770507812	226.7914581298828	345.8839111328125	1420.153198242188	238.2964782714844	428.115478515625	1317.305786132812	163.3899536132812	536.9407958984375	1130.150512695312	174.7876586914062	448.6036682128906	1077.733276367188	163.3885955810547	632.3173828125	973.440673828125	296.237060546875	647.9163208007812	947.626220703125	228.7158203125	588.9638671875	1059.59423828125	197.4315338134766	708.2864990234375	826.5311279296875	331.0725708007812	685.116455078125	878.6972045898438	250.5766296386719	686.4671630859375	903.371826171875	317.4125061035156	130.2282257080078	1404.222045898438	493.4193420410156	62.54098129272461	1347.074584960938	533.8860473632812	-13.54804134368896	1066.466186523438	551.3935546875	-28.74860572814941	1057.74658203125	485.5579833984375	73.76996612548828	852.8045654296875	563.1874389648438	-14.57415676116943	845.2324829101562	562.705322265625	-23.33968734741211	1007.770446777344	556.8630981445312	54.62873840332031	694.8177490234375	548.399169921875	67.68764495849609	751.0078735351562	569.0731811523438	-7.932398796081543	756.9205932617188	561.6180419921875	194.3831329345703	1631.680786132812	451.900390625	394.264404296875	1649.733764648438	401.790771484375	319.1653747558594	1651.531372070312	508.5241394042969	283.6676025390625	1634.042358398438	297.1692504882812	355.9131469726562	844.5643310546875	200.7353668212891	135.5929412841797	850.2326049804688	535.3460693359375	249.6184539794922	901.601318359375	524.9461059570312	397.3005676269531	887.3677978515625	317.6093139648438	311.257080078125	420.6589965820312	258.5252380371094	354.8937683105469	574.3355712890625	247.5662078857422	178.9627532958984	32.7420539855957	189.8150787353516	280.2310791015625	265.4334411621094	240.6976623535156	286.8724060058594	38.61475372314453	398.1937561035156	218.2910003662109	43.73149871826172	364.2278442382812	297.0992126464844	41.72325897216797	281.5758972167969	107.1646423339844	33.6721076965332	186.5239410400391	292.9635009765625	494.3610534667969	624.714111328125	202.7549438476562	739.208984375	599.30908203125	255.1750946044922	61.66815185546875	569.865966796875	281.3428039550781	346.1534423828125	627.1444702148438	449.3340454101562	72.61148834228516	660.6654052734375	423.218017578125	74.60514068603516	592.350830078125	346.35693359375	51.80001068115234	661.5074462890625	229.5226593017578	65.31947326660156	492.9927978515625	
330	3.29	107.0423126220703	935.1812744140625	350.194091796875	184.4356994628906	943.8624267578125	231.1607055664062	149.8810424804688	1043.91748046875	297.8395080566406	367.9595642089844	1239.40185546875	456.7259521484375	143.1761779785156	1167.888305664062	280.5514831542969	186.4336395263672	1435.204833984375	332.9576110839844	337.0393676757812	1353.725708007812	437.6558532714844	80.40420532226562	1314.89794921875	360.5031433105469	227.0314025878906	1392.620239257812	232.7478332519531	353.4707336425781	1418.644287109375	244.4034118652344	436.362548828125	1316.373901367188	169.6183471679688	546.8908081054688	1130.494018554688	181.8480224609375	459.2782592773438	1076.846435546875	170.5172271728516	643.7781982421875	976.8359985351562	305.6890869140625	660.1203002929688	950.2444458007812	238.6477355957031	599.7445068359375	1060.936279296875	205.5419158935547	721.9338989257812	831.81787109375	343.2468566894531	698.3084106445312	882.2764282226562	261.7548522949219	698.9436645507812	908.0541381835938	328.1636962890625	137.7782440185547	1401.864624023438	499.3827514648438	70.28583526611328	1344.506713867188	539.78955078125	-5.117470741271973	1063.845581054688	557.688720703125	-20.35540390014648	1055.08935546875	491.849609375	81.58798217773438	850.0069580078125	569.2843017578125	-6.356060981750488	842.66552734375	569.0909423828125	-14.88697624206543	1005.165954589844	563.1041870117188	62.69443893432617	692.1529541015625	554.73095703125	75.75968170166016	748.3450927734375	575.4231567382812	0.1453376412391663	754.3651733398438	568.053466796875	201.7556610107422	1629.571533203125	458.3701782226562	401.59228515625	1647.946655273438	408.2265625	326.5893249511719	1649.448364257812	515	291.0195617675781	1632.30322265625	303.5871276855469	362.3078002929688	843.6805419921875	205.3447723388672	144.8720092773438	847.9498901367188	541.5847778320312	258.8125	900.0592651367188	531.1566162109375	404.74462890625	885.7026977539062	322.3873901367188	313.5796813964844	419.9333801269531	259.6880798339844	358.8032531738281	573.3077392578125	249.9683227539062	178.8379821777344	33.00537109375	189.9908447265625	281.430908203125	265.0809936523438	241.2844696044922	287.0394287109375	38.60124206542969	398.2033081054688	218.4200592041016	43.79753112792969	364.2725219726562	297.0372924804688	41.6046142578125	281.4352111816406	107.0053863525391	34.15053176879883	186.7991790771484	303.9755859375	492.09716796875	629.3915405273438	212.0522155761719	737.0615234375	605.406005859375	284.1263122558594	56.56755065917969	592.3428344726562	298.0826110839844	344.2088928222656	637.6056518554688	477.7847900390625	78.61055755615234	682.1218872070312	451.4736938476562	77.15894317626953	613.7531127929688	375.89404296875	53.35504913330078	683.8412475585938	258.2048645019531	56.47371673583984	515.4479370117188	
